<svg width="210" height="44" viewBox="0 0 210 44" fill="none" xmlns="http://www.w3.org/2000/svg" role="img" aria-label="LinkedIn Gabriel Mundt">
  <defs>
    <linearGradient id="linkedin-bg" x1="0" y1="0" x2="210" y2="44" gradientUnits="userSpaceOnUse">
      <stop stop-color="#0D1117"/>
      <stop offset="0.56" stop-color="#0D2C5C"/>
      <stop offset="1" stop-color="#00958B"/>
    </linearGradient>
    <linearGradient id="linkedin-stroke" x1="8" y1="4" x2="202" y2="40" gradientUnits="userSpaceOnUse">
      <stop stop-color="#12F7D1"/>
      <stop offset="1" stop-color="#75FABD" stop-opacity="0.35"/>
    </linearGradient>
    <filter id="linkedin-glow" x="-10" y="-10" width="230" height="64" filterUnits="userSpaceOnUse" color-interpolation-filters="sRGB">
      <feFlood flood-opacity="0" result="BackgroundImageFix"/>
      <feColorMatrix in="SourceAlpha" type="matrix" values="0 0 0 0 0 0 0 0 0 0 0 0 0 0 0 0 0 0 127 0" result="hardAlpha"/>
      <feOffset/>
      <feGaussianBlur stdDeviation="4"/>
      <feComposite in2="hardAlpha" operator="out"/>
      <feColorMatrix type="matrix" values="0 0 0 0 0.0705882 0 0 0 0 0.968627 0 0 0 0 0.819608 0 0 0 0.32 0"/>
      <feBlend mode="normal" in2="BackgroundImageFix" result="effect1_dropShadow_1_1"/>
      <feBlend mode="normal" in="SourceGraphic" in2="effect1_dropShadow_1_1" result="shape"/>
    </filter>
  </defs>
  <rect x="1" y="1" width="208" height="42" rx="14" fill="url(#linkedin-bg)" filter="url(#linkedin-glow)"/>
  <rect x="1" y="1" width="208" height="42" rx="14" stroke="url(#linkedin-stroke)" stroke-width="1.4"/>
  <rect x="15" y="11" width="22" height="22" rx="7" fill="#12F7D1" fill-opacity="0.14" stroke="#12F7D1" stroke-opacity="0.45"/>
  <path d="M19.3 19.7H22.3V29H19.3V19.7ZM20.8 15.2C21.75 15.2 22.5 15.95 22.5 16.85C22.5 17.78 21.75 18.5 20.8 18.5C19.85 18.5 19.1 17.78 19.1 16.85C19.1 15.95 19.85 15.2 20.8 15.2ZM24.2 19.7H27.05V20.98H27.1C27.5 20.22 28.48 19.43 29.94 19.43C32.98 19.43 33.54 21.43 33.54 24.03V29H30.56V24.6C30.56 23.55 30.54 22.2 29.1 22.2C27.64 22.2 27.42 23.34 27.42 24.52V29H24.2V19.7Z" fill="#12F7D1"/>
  <text x="47" y="19" fill="#F8FAFC" font-family="Inter,Segoe UI,Arial,sans-serif" font-size="12" font-weight="700" letter-spacing="1.6">LINKEDIN</text>
  <text x="47" y="32" fill="#D0DDEE" font-family="Inter,Segoe UI,Arial,sans-serif" font-size="10" font-weight="500">Gabriel Mundt</text>
</svg>
